<svg xmlns="http://www.w3.org/2000/svg" viewBox="0 0 1317.2 198.04"><defs><style>.cls-1{font-size:185.33px;fill:#044490;font-family:Gentona-ExtraBoldDEMO, Gentona;font-weight:700;}.cls-2{letter-spacing:-0.07em;}.cls-3{letter-spacing:0em;}.cls-4{letter-spacing:-0.01em;}.cls-5{letter-spacing:-0.01em;}.cls-6{letter-spacing:0em;}.cls-7{fill:#043f81;}.cls-8{fill:#fff;}</style></defs><title>Asset 1</title><g id="Layer_2" data-name="Layer 2"><g id="Layer_1-2" data-name="Layer 1"><text class="cls-1" transform="translate(213 154.53)"><tspan class="cls-2">T</tspan><tspan class="cls-3" x="96" y="0">e</tspan><tspan class="cls-4" x="193.49" y="0">a</tspan><tspan class="cls-5" x="289.49" y="0">c</tspan><tspan class="cls-6" x="378.63" y="0">h</tspan><tspan class="cls-3" x="483.71" y="0">i</tspan><tspan x="534.87" y="0">fy </tspan><tspan class="cls-3" x="746.51" y="0">L</tspan><tspan class="cls-6" x="842.88" y="0">M</tspan><tspan x="997.26" y="0">S</tspan></text><path class="cls-7" d="M124.92,88.73c40-14,71.26-59.46,56.26-79.77-12.14,5.9-56.42-9-56.42-9l-8.37,9.6L107.25,4.5,95.15,9H88.41l-12-4.37L67.9,9,58.5,0S16.76,14.85,4.61,9c-17.74,25.3,18.49,62.6,60.84,79.7-10.35-1.41-28.26-7.33-33-13.35C20.12,103.73,65.26,106.9,67,137c1.41,24.12-7,38.33-5.52,55.48,5.19,7.22,25.5,7.25,30,1.34,4.91-6.47-14.31-57.41-11.67-65.34.94-2.84.93,3.82,7.62,5.3.94,8.73,7,52.38,7.13,58.37a11,11,0,0,1-2,1.86c0,1.52,2.93,2.53,6.23,2.53s6.42-1.88,6.3-2.64c-.07-.42-1.2-.65-1.82-1.44,0-4.11,1.08-48.43.51-58.69,7.47-2.61,7.2-8.4,8.27-5.66,3.06,7.81-11.39,59.28-6.15,65.53,4.79,5.7,24.26,6.32,30.11-1.29.52-17.2-10.13-31.74-10-55.89.17-30.09,43.94-32.74,30.12-60.58-4.24,4.93-20.72,11.06-31.2,12.88m12.09-53L120.89,49.89s2.6,5.72,3.44,7.86l-6.88-8.87,14.5-13.51L110.6,11.54ZM75.05,9.7l-23,25.68,14.5,13.51-6.17,8.3c.76-2.44,2.37-7.3,2.37-7.3L46.65,35.75ZM63.74,37.31C65.86,36.74,78,43.58,78,43.58S72.41,46,67.19,45.51c-7.25-2.09-3.89-8.2-3.45-8.2m7.13,36.83c-9.2,1.5-30.3.75-25-17.31,1.68,9.43,11,12.81,19.57,8.09,4.13-1.72,8.36-1.84,9.85,2.71s-1.63,5.5-4.43,6.51m33.6-3.7c-2.63,14.11-4.12,42.26-5,67.3l-1.72,3.88c-.55-20.94-1.17-41.47-1.16-44.13q0-8.14-.57-16.25c-.37-5.41-.9-10.8-1.63-16.19a140.55,140.55,0,0,0-3-16.11,139.68,139.68,0,0,0-.84,16.33q0,8.14.57,16.25c.2,2.93,1.95,32.52,3.73,59.89l-2.58-5.07C89,113.5,84.65,87.76,79.66,70.43c-7.26-25.21,5.66-26.21,5.66-26.21V43.1L61.21,32.54,75.94,8.89l6.91,1,9.84,23.87,8.19-23.88,6.85-.95.84.77,14.25,22.88L98.7,43.1l.12,1.13s10.07,2.55,5.66,26.21m1.41-26.86s12.11-6.83,14.24-6.27c.44,0,3.8,6.11-3.45,8.2-5.22.48-10.79-1.93-10.79-1.93m7.77,30.55c-2.8-1-5.9-2-4.43-6.51s5.72-4.42,9.85-2.71c8.61,4.72,17.89,1.34,19.57-8.09,5.31,18.06-15.8,18.82-25,17.31"/><path class="cls-8" d="M41.4,71.56a48.47,48.47,0,0,1-7-4.76,78.94,78.94,0,0,1-6.27-5.6,82.74,82.74,0,0,1-5.66-6.14,74.64,74.64,0,0,1-5-6.62,55.09,55.09,0,0,1-7.32-14.76,29.8,29.8,0,0,1-1.32-8.2,19.62,19.62,0,0,1,1.6-8.32l.5-1.11,1.24.17a62.1,62.1,0,0,0,11.56.38,86.72,86.72,0,0,0,11.59-1.48,115,115,0,0,0,11.38-2.85,115.28,115.28,0,0,0,11.06-4,80.28,80.28,0,0,1-10.59,5.07,91.75,91.75,0,0,1-11.32,3.7,77.58,77.58,0,0,1-11.89,2.11,59.86,59.86,0,0,1-12.22,0l1.74-.94a18.58,18.58,0,0,0-1.19,7.21,29.65,29.65,0,0,0,1.27,7.42,46,46,0,0,0,2.82,7.22A76.24,76.24,0,0,0,20.15,47c.7,1.13,1.43,2.24,2.19,3.35s1.52,2.21,2.32,3.29c1.6,2.16,3.29,4.28,5,6.35s3.6,4.09,5.54,6a64,64,0,0,0,6.17,5.55"/><path class="cls-8" d="M149,70.62A54.88,54.88,0,0,0,160,59.35a55.74,55.74,0,0,0,4-6.49,51.16,51.16,0,0,0,2.95-6.9,43.52,43.52,0,0,0,2.4-14.48,39.87,39.87,0,0,0-2.83-14.36l1.81.94c-3.93.87-30-2.78-41.07-11.46C131.85,9.16,159.59,16,169,14.9l.51,1.16a38.64,38.64,0,0,1,3.29,15.39,41.54,41.54,0,0,1-2.93,15.42A44.72,44.72,0,0,1,166.38,54a45.68,45.68,0,0,1-4.73,6.47A44.65,44.65,0,0,1,149,70.62"/><path class="cls-8" d="M65,191.81c-.47-1.71.52-5.91,3-5.91s3.11,8.38,3.11,8.38-4.64,0-6.1-2.47"/><path class="cls-8" d="M73.73,194.86c-.83-2.79.2-11.22,3.39-11.22s4.79,9.66,4.48,11.15a9.75,9.75,0,0,1-7.87.07"/><path class="cls-8" d="M83.93,194.62c-.52-2.34-.82-8.86,2-9.07s4.3,6.73,4.3,6.73a6.94,6.94,0,0,1-6.32,2.35"/><path class="cls-8" d="M134,191.15c0-3-1.92-8.43-4.36-8-2.79.44-2.55,11-2.55,11s4.93-.1,6.91-2.94"/><path class="cls-8" d="M125,194.31c.68-2.82-2-12-5.16-11.79s-3.78,11.54-3.42,11.74a9.67,9.67,0,0,0,8.58.05"/><path class="cls-8" d="M113.91,194c1-2.23-.1-9.86-2.94-9.86-3.28,0-3.66,7.69-3.66,7.69s2.09,2.84,6.6,2.17"/><path class="cls-8" d="M93,147.26a9.14,9.14,0,0,1,1.81-.39,15.27,15.27,0,0,1,3.62,0,9,9,0,0,1,1.81.39,9,9,0,0,1-1.81.39,15.27,15.27,0,0,1-3.62,0,9.07,9.07,0,0,1-1.81-.39"/><path class="cls-8" d="M92.46,151.45a11.44,11.44,0,0,1,2.09-.39,19.77,19.77,0,0,1,2.09-.11,19.41,19.41,0,0,1,2.09.11,11.37,11.37,0,0,1,2.09.39,11.35,11.35,0,0,1-2.09.39,19.72,19.72,0,0,1-4.17,0,11.45,11.45,0,0,1-2.09-.39"/><path class="cls-8" d="M93,155.64a9.09,9.09,0,0,1,1.81-.39,15.29,15.29,0,0,1,3.62,0,9,9,0,0,1,1.81.39,9,9,0,0,1-1.81.39,15.31,15.31,0,0,1-3.62,0,9.09,9.09,0,0,1-1.81-.39"/><path class="cls-8" d="M93.56,160a9.13,9.13,0,0,1,1.81-.39,15.3,15.3,0,0,1,3.62,0,9.07,9.07,0,0,1,1.81.39,9,9,0,0,1-1.81.39,15.26,15.26,0,0,1-3.62,0,9.13,9.13,0,0,1-1.81-.39"/><path class="cls-8" d="M98.42,164c0,.41-.55.75-1.24.75s-1.24-.34-1.24-.75.55-.75,1.24-.75,1.24.34,1.24.75"/><path class="cls-8" d="M97.87,143.87c0,.41-.55.75-1.24.75s-1.24-.34-1.24-.75.55-.75,1.24-.75,1.24.34,1.24.75"/><path class="cls-8" d="M98.64,168.38c0,.41-.55.75-1.24.75s-1.24-.34-1.24-.75.55-.75,1.24-.75,1.24.34,1.24.75"/></g></g></svg>